<mxfile host="Electron" modified="2024-03-29T13:22:51.381Z" agent="Mozilla/5.0 (X11; Linux x86_64) AppleWebKit/537.36 (KHTML, like Gecko) draw.io/24.1.0 Chrome/120.0.6099.109 Electron/28.1.0 Safari/537.36" etag="ikyUVIuCiTtGqpN-pBrv" version="24.1.0" type="device">
  <diagram name="第 1 页" id="Q4xopFJmCzWeq5gmXgPe">
    <mxGraphModel dx="830" dy="477" grid="1" gridSize="10" guides="1" tooltips="1" connect="1" arrows="1" fold="1" page="1" pageScale="1" pageWidth="827" pageHeight="1169" math="1" shadow="0">
      <root>
        <mxCell id="0" />
        <mxCell id="1" parent="0" />
        <mxCell id="_QdoT_HeV3pdr8eNj3mZ-1" value="" style="group" parent="1" vertex="1" connectable="0">
          <mxGeometry x="1" y="2" width="762" height="210.82" as="geometry" />
        </mxCell>
        <mxCell id="Vkp8LfM3fs7p3LC4nuJO-1" value="" style="rounded=0;whiteSpace=wrap;html=1;fillColor=#99CCFF;dashed=1;strokeColor=none;" parent="_QdoT_HeV3pdr8eNj3mZ-1" vertex="1">
          <mxGeometry width="762" height="210.82" as="geometry" />
        </mxCell>
        <mxCell id="Vkp8LfM3fs7p3LC4nuJO-2" value="&lt;font style=&quot;font-size: 13px;&quot;&gt;&lt;b&gt;输入&lt;/b&gt;：一个 &lt;font face=&quot;Times New Roman&quot; style=&quot;font-size: 13px;&quot;&gt;Batch&lt;/font&gt; 数据`\left( \mathbf{x^{(i)}}, \mathbf{y^{(i)}}&lt;br style=&quot;border-color: var(--border-color); font-size: 13px;&quot;&gt;&amp;nbsp;\right)`，网络模型`\mathbf{J}`，损失函数&lt;/font&gt;&lt;font style=&quot;&quot;&gt;&lt;font&gt;&lt;span style=&quot;font-size: 12px;&quot;&gt;\(\mathcal{L}\)&lt;/span&gt;&lt;/font&gt;，学习率`\eta`，训练轮数`Epochs`&lt;/font&gt;" style="rounded=1;whiteSpace=wrap;html=1;fontSize=13;fontFamily=宋体;" parent="_QdoT_HeV3pdr8eNj3mZ-1" vertex="1">
          <mxGeometry x="16.5" y="3.8200000000000003" width="197" height="64.38" as="geometry" />
        </mxCell>
        <mxCell id="Vkp8LfM3fs7p3LC4nuJO-3" value="&lt;b&gt;初始化&lt;/b&gt;：`i=0`" style="rounded=0;whiteSpace=wrap;html=1;fontFamily=宋体;fontSize=13;" parent="_QdoT_HeV3pdr8eNj3mZ-1" vertex="1">
          <mxGeometry x="72" y="93.49000000000001" width="86" height="40" as="geometry" />
        </mxCell>
        <mxCell id="Vkp8LfM3fs7p3LC4nuJO-4" value="`i&amp;lt;Epochs`" style="rhombus;whiteSpace=wrap;html=1;fontFamily=宋体;fontSize=13;verticalAlign=middle;" parent="_QdoT_HeV3pdr8eNj3mZ-1" vertex="1">
          <mxGeometry x="187" y="88.5" width="100" height="50" as="geometry" />
        </mxCell>
        <mxCell id="Vkp8LfM3fs7p3LC4nuJO-5" value="&lt;b&gt;反向传播&lt;/b&gt;：根据公式&lt;font face=&quot;Times New Roman&quot;&gt;(2-8)&lt;/font&gt;计算误差`\mathbf{\Delta}^{(i)}`，梯度`\frac{\partial \mathbf{\Delta}^{(i)}}{\partial \mathbf{w}_{i, j}^{(i)}}`、`\frac{\partial \mathbf{\Delta}^{(i)}}{\partial \mathbf{b}_{i}^{(i)}}`" style="rounded=0;whiteSpace=wrap;html=1;fontFamily=宋体;fontSize=13;" parent="_QdoT_HeV3pdr8eNj3mZ-1" vertex="1">
          <mxGeometry x="570" y="81.31" width="188.35" height="64.37" as="geometry" />
        </mxCell>
        <mxCell id="Vkp8LfM3fs7p3LC4nuJO-6" value="&lt;b&gt;模型更新&lt;/b&gt;：根据公式&lt;font face=&quot;Times New Roman&quot;&gt;(2-9)&lt;/font&gt;更新模型参数`\mathbf{W}`、`\mathbf{B}`" style="rounded=0;whiteSpace=wrap;html=1;fontFamily=宋体;fontSize=13;" parent="_QdoT_HeV3pdr8eNj3mZ-1" vertex="1">
          <mxGeometry x="585.57" y="3.8200000000000003" width="157.2" height="52.5" as="geometry" />
        </mxCell>
        <mxCell id="Vkp8LfM3fs7p3LC4nuJO-7" value="`i++`" style="rounded=0;whiteSpace=wrap;html=1;fontFamily=Times New Roman;fontSize=13;" parent="_QdoT_HeV3pdr8eNj3mZ-1" vertex="1">
          <mxGeometry x="411.54" y="20.07" width="45" height="20" as="geometry" />
        </mxCell>
        <mxCell id="Vkp8LfM3fs7p3LC4nuJO-8" value="&lt;font style=&quot;font-size: 13px;&quot;&gt;&lt;b&gt;输出&lt;/b&gt;：最优参数矩阵`\mathbf{W}`、`\mathbf{B}`&lt;/font&gt;" style="rounded=1;whiteSpace=wrap;html=1;fontSize=13;fontFamily=宋体;" parent="_QdoT_HeV3pdr8eNj3mZ-1" vertex="1">
          <mxGeometry x="154.07" y="177.88" width="165.85" height="30" as="geometry" />
        </mxCell>
        <mxCell id="Vkp8LfM3fs7p3LC4nuJO-9" value="" style="endArrow=classicThin;html=1;rounded=0;exitX=0.5;exitY=1;exitDx=0;exitDy=0;entryX=0.5;entryY=0;entryDx=0;entryDy=0;endFill=1;fontSize=13;" parent="_QdoT_HeV3pdr8eNj3mZ-1" source="Vkp8LfM3fs7p3LC4nuJO-2" target="Vkp8LfM3fs7p3LC4nuJO-3" edge="1">
          <mxGeometry width="50" height="50" relative="1" as="geometry">
            <mxPoint x="220.64999999999998" y="-26.499999999999993" as="sourcePoint" />
            <mxPoint x="270.65" y="-76.5" as="targetPoint" />
          </mxGeometry>
        </mxCell>
        <mxCell id="Vkp8LfM3fs7p3LC4nuJO-10" value="" style="endArrow=classicThin;html=1;rounded=0;entryX=0;entryY=0.5;entryDx=0;entryDy=0;endFill=1;fontSize=13;exitX=1;exitY=0.5;exitDx=0;exitDy=0;" parent="_QdoT_HeV3pdr8eNj3mZ-1" source="Vkp8LfM3fs7p3LC4nuJO-3" target="Vkp8LfM3fs7p3LC4nuJO-4" edge="1">
          <mxGeometry width="50" height="50" relative="1" as="geometry">
            <mxPoint x="250.64999999999998" y="14.500000000000007" as="sourcePoint" />
            <mxPoint x="270.65" y="14.500000000000007" as="targetPoint" />
          </mxGeometry>
        </mxCell>
        <mxCell id="Vkp8LfM3fs7p3LC4nuJO-11" value="" style="endArrow=classicThin;html=1;rounded=0;entryX=0;entryY=0.5;entryDx=0;entryDy=0;endFill=1;fontSize=13;exitX=1;exitY=0.5;exitDx=0;exitDy=0;" parent="_QdoT_HeV3pdr8eNj3mZ-1" source="Vkp8LfM3fs7p3LC4nuJO-4" target="Vkp8LfM3fs7p3LC4nuJO-19" edge="1">
          <mxGeometry width="50" height="50" relative="1" as="geometry">
            <mxPoint x="370.65" y="14.500000000000007" as="sourcePoint" />
            <mxPoint x="327" y="113.5" as="targetPoint" />
          </mxGeometry>
        </mxCell>
        <mxCell id="Vkp8LfM3fs7p3LC4nuJO-12" value="" style="endArrow=classicThin;html=1;rounded=0;entryX=0;entryY=0.5;entryDx=0;entryDy=0;endFill=1;fontSize=13;exitX=1;exitY=0.5;exitDx=0;exitDy=0;" parent="_QdoT_HeV3pdr8eNj3mZ-1" source="Vkp8LfM3fs7p3LC4nuJO-19" target="Vkp8LfM3fs7p3LC4nuJO-5" edge="1">
          <mxGeometry width="50" height="50" relative="1" as="geometry">
            <mxPoint x="457" y="113.5" as="sourcePoint" />
            <mxPoint x="516.65" y="14.669999999999966" as="targetPoint" />
          </mxGeometry>
        </mxCell>
        <mxCell id="Vkp8LfM3fs7p3LC4nuJO-13" value="" style="endArrow=classicThin;html=1;rounded=0;entryX=0.5;entryY=1;entryDx=0;entryDy=0;endFill=1;fontSize=13;exitX=0.5;exitY=0;exitDx=0;exitDy=0;" parent="_QdoT_HeV3pdr8eNj3mZ-1" source="Vkp8LfM3fs7p3LC4nuJO-5" target="Vkp8LfM3fs7p3LC4nuJO-6" edge="1">
          <mxGeometry width="50" height="50" relative="1" as="geometry">
            <mxPoint x="627.65" y="14.669999999999966" as="sourcePoint" />
            <mxPoint x="647.65" y="14.669999999999966" as="targetPoint" />
          </mxGeometry>
        </mxCell>
        <mxCell id="Vkp8LfM3fs7p3LC4nuJO-14" value="" style="endArrow=classicThin;html=1;rounded=0;entryX=1;entryY=0.5;entryDx=0;entryDy=0;endFill=1;fontSize=13;exitX=0;exitY=0.5;exitDx=0;exitDy=0;" parent="_QdoT_HeV3pdr8eNj3mZ-1" source="Vkp8LfM3fs7p3LC4nuJO-6" target="Vkp8LfM3fs7p3LC4nuJO-7" edge="1">
          <mxGeometry width="50" height="50" relative="1" as="geometry">
            <mxPoint x="714.65" y="14.669999999999966" as="sourcePoint" />
            <mxPoint x="734.65" y="14.669999999999966" as="targetPoint" />
          </mxGeometry>
        </mxCell>
        <mxCell id="Vkp8LfM3fs7p3LC4nuJO-15" value="" style="endArrow=classicThin;html=1;rounded=0;entryX=0.5;entryY=0;entryDx=0;entryDy=0;endFill=1;fontSize=13;exitX=0.5;exitY=1;exitDx=0;exitDy=0;" parent="_QdoT_HeV3pdr8eNj3mZ-1" source="Vkp8LfM3fs7p3LC4nuJO-4" target="Vkp8LfM3fs7p3LC4nuJO-8" edge="1">
          <mxGeometry width="50" height="50" relative="1" as="geometry">
            <mxPoint x="570" y="84.5" as="sourcePoint" />
            <mxPoint x="570" y="51.5" as="targetPoint" />
          </mxGeometry>
        </mxCell>
        <mxCell id="Vkp8LfM3fs7p3LC4nuJO-16" value="&lt;b&gt;Y&lt;/b&gt;" style="rounded=0;whiteSpace=wrap;html=1;fontFamily=宋体;fontSize=13;" parent="_QdoT_HeV3pdr8eNj3mZ-1" vertex="1">
          <mxGeometry x="303.92" y="88.5" width="16" height="20" as="geometry" />
        </mxCell>
        <mxCell id="Vkp8LfM3fs7p3LC4nuJO-17" value="&lt;b&gt;N&lt;/b&gt;" style="rounded=0;whiteSpace=wrap;html=1;fontFamily=宋体;fontSize=13;" parent="_QdoT_HeV3pdr8eNj3mZ-1" vertex="1">
          <mxGeometry x="214" y="145.68" width="16" height="20" as="geometry" />
        </mxCell>
        <mxCell id="Vkp8LfM3fs7p3LC4nuJO-18" value="" style="edgeStyle=orthogonalEdgeStyle;rounded=0;orthogonalLoop=1;jettySize=auto;html=1;exitX=0;exitY=0.5;exitDx=0;exitDy=0;entryX=0.5;entryY=0;entryDx=0;entryDy=0;fontFamily=宋体;fontSize=13;" parent="_QdoT_HeV3pdr8eNj3mZ-1" source="Vkp8LfM3fs7p3LC4nuJO-7" target="Vkp8LfM3fs7p3LC4nuJO-4" edge="1">
          <mxGeometry relative="1" as="geometry">
            <mxPoint x="602" y="-181.12" as="sourcePoint" />
            <mxPoint x="164" y="-196.12" as="targetPoint" />
            <Array as="points">
              <mxPoint x="237" y="29.879999999999995" />
            </Array>
          </mxGeometry>
        </mxCell>
        <mxCell id="Vkp8LfM3fs7p3LC4nuJO-19" value="&lt;b&gt;前向传播&lt;/b&gt;：`\mathbf{a}_{i}^{[l]} = \sigma (\sum_{j = 1}^{n^{[l-1]}}\mathbf{w}_{i, j}^{[l]}\mathbf{a}_{j}^{[l - 1]} + \mathbf{b}_{i}^{[l - 1]})`" style="rounded=0;whiteSpace=wrap;html=1;fontFamily=宋体;fontSize=13;" parent="_QdoT_HeV3pdr8eNj3mZ-1" vertex="1">
          <mxGeometry x="336" y="78.5" width="196.08" height="70" as="geometry" />
        </mxCell>
      </root>
    </mxGraphModel>
  </diagram>
</mxfile>
